<svg xmlns="http://www.w3.org/2000/svg" viewBox="0 0 2900 1750"><g fill="rgb(0,0,0)" style="transform: none;"><g style="transform: none;"><path d="M1450 1185 c0 -33 2 -35 35 -35 33 0 35 2 35 35 0 33 -2 35 -35 35 -33 0 -35 -2 -35 -35z"></path><path d="M0 1141 c0 -48 1 -50 32 -53 35 -3 37 -8 77 -188 32 -142 32 -144 -4 -148 -16 -2 -36 -8 -42 -14 -17 -14 -17 -77 0 -83 6 -3 91 -1 187 3 l175 7 0 45 c0 45 0 45 -37 48 -42 3 -51 16 -62 75 l-7 37 74 0 c74 0 75 0 80 -29 3 -16 9 -40 13 -55 5 -22 2 -27 -21 -36 -23 -9 -26 -15 -23 -47 l3 -38 168 -3 167 -2 0 40 c0 41 -2 43 -52 54 -22 5 -30 16 -46 68 -11 35 -28 99 -37 143 -8 44 -18 90 -21 103 -4 20 -1 22 36 22 40 0 40 0 40 40 0 29 -5 42 -20 50 -12 6 -81 9 -182 8 l-163 -3 0 -45 c0 -44 1 -45 33 -48 37 -4 57 -29 67 -84 l7 -38 -65 0 c-73 0 -80 5 -101 74 -14 45 -14 46 10 52 21 5 24 12 24 50 l0 44 -155 0 -155 0 0 -49z"></path><path d="M792 1145 c3 -47 3 -47 52 -63 49 -17 49 -17 63 -77 7 -33 18 -74 23 -91 6 -16 13 -57 16 -90 l6 -59 -42 -17 c-39 -16 -41 -19 -38 -55 l3 -38 249 -8 c137 -5 255 -6 262 -3 11 4 14 30 14 107 l0 101 -49 -4 -48 -3 -12 45 c-7 25 -17 59 -22 75 l-9 30 33 -38 c26 -30 39 -37 68 -37 24 0 39 5 43 16 18 47 -10 199 -41 222 -16 11 -70 15 -253 17 -36 1 -123 5 -193 9 l-128 9 3 -48z m348 -79 c25 -8 40 -15 34 -15 -7 -1 -15 -17 -18 -36 -8 -40 -18 -49 -46 -40 -16 5 -20 15 -20 56 0 27 1 49 3 49 1 0 22 -7 47 -14z m50 -269 c12 -15 31 -27 43 -28 19 0 18 -2 -8 -15 -40 -20 -85 -5 -85 28 0 13 -3 34 -7 47 -6 23 -5 24 15 10 12 -9 31 -27 42 -42z"></path><path d="M1560 1137 c-15 -8 -29 -27 -36 -52 l-12 -40 -3 40 c-4 38 -6 40 -42 43 l-38 3 3 -103 3 -103 43 -3 c41 -3 42 -3 43 30 0 18 3 26 6 18 8 -24 35 -40 65 -40 24 0 28 -4 28 -28 0 -28 3 -29 71 -41 38 -7 86 -10 105 -7 33 7 35 5 53 -37 21 -49 53 -77 88 -77 16 0 23 -6 23 -19 0 -10 27 -44 61 -75 58 -55 62 -57 107 -54 l47 3 -1 65 c-1 58 -39 249 -58 292 -4 9 -8 52 -9 95 l-2 78 -122 3 -123 3 0 -45 c0 -37 4 -46 21 -51 19 -6 49 -58 49 -85 0 -14 -53 -13 -85 2 -18 8 -25 19 -25 39 0 15 -7 29 -15 33 -8 3 -15 11 -15 18 0 21 -89 95 -122 102 -46 9 -80 7 -108 -7z m165 -167 c18 -20 17 -20 -8 -20 -20 0 -24 4 -20 20 3 11 6 20 8 20 1 0 10 -9 20 -20z"></path><path d="M2217 1133 c-12 -11 -8 -71 5 -79 7 -4 28 -10 47 -14 34 -5 36 -8 53 -70 10 -36 28 -99 40 -140 12 -41 24 -106 27 -145 l6 -70 138 -3 c155 -3 204 6 249 47 28 25 32 36 36 92 4 59 2 67 -24 97 -16 18 -36 32 -45 32 -9 0 -27 9 -40 20 l-24 19 36 1 c42 0 59 15 59 50 0 38 20 58 60 62 32 3 35 6 38 39 4 52 -14 62 -124 67 -75 4 -99 1 -118 -12 -28 -18 -46 -70 -46 -133 0 -35 -5 -46 -26 -59 -32 -21 -40 -13 -52 55 -9 48 -8 54 9 58 15 4 19 15 19 49 l0 44 -158 0 c-87 0 -162 -3 -165 -7z m390 -337 c24 -21 26 -26 15 -50 -18 -40 -36 -31 -54 24 -19 58 -8 66 39 26z"></path></g></g><g fill="rgb(255,255,255)" style="transform: none;"><g style="transform: none;"><path d="M0 875 l0 -875 1450 0 1450 0 0 875 0 875 -1450 0 -1450 0 0 -875z m280 271 c0 -8 -11 -17 -25 -20 -30 -8 -32 -36 -10 -110 23 -75 25 -76 132 -76 109 0 111 2 93 82 -17 74 -33 96 -72 100 -21 2 -33 8 -33 18 0 12 23 15 133 18 126 2 172 -5 172 -28 0 -5 -19 -10 -42 -12 -39 -3 -43 -6 -42 -28 2 -40 43 -229 65 -298 17 -52 25 -63 47 -68 44 -9 52 -13 52 -23 0 -12 -268 -12 -276 0 -3 5 8 14 25 20 36 13 37 21 14 110 l-17 67 -100 5 c-56 2 -105 1 -110 -4 -9 -8 10 -119 26 -151 5 -10 23 -18 46 -20 25 -2 37 -8 37 -18 0 -12 -26 -16 -150 -21 -82 -3 -154 -4 -158 -1 -16 8 16 32 44 32 53 0 53 12 -5 265 -29 130 -29 129 -67 135 -22 3 -35 11 -37 23 -3 15 8 17 127 17 105 0 131 -3 131 -14z m775 -2 c55 -2 136 -3 181 -3 48 -1 87 -6 97 -13 33 -25 58 -178 29 -178 -11 0 -82 86 -82 100 0 6 10 8 26 4 22 -6 25 -4 22 12 -3 16 -17 20 -93 27 -50 4 -112 9 -140 10 -55 2 -53 6 -38 -72 5 -29 3 -33 -13 -29 -13 2 -21 16 -27 48 -9 49 -29 76 -46 65 -13 -7 -7 -52 14 -120 7 -22 21 -86 31 -142 16 -88 22 -103 38 -103 16 0 18 5 12 38 -17 93 -25 156 -20 164 3 5 18 1 32 -8 43 -25 94 -8 106 37 16 56 46 62 46 10 0 -15 4 -41 9 -57 34 -112 34 -115 23 -126 -9 -9 -23 0 -58 35 -37 38 -52 47 -81 47 -34 0 -35 -1 -30 -29 3 -15 9 -52 13 -80 8 -58 24 -71 89 -71 50 0 79 17 116 66 48 65 60 59 57 -28 l-3 -73 -225 3 c-124 2 -229 7 -234 12 -9 9 44 40 69 40 8 0 15 6 15 14 0 30 -22 172 -30 201 -5 17 -16 57 -23 90 -14 60 -14 60 -63 77 -30 10 -50 23 -53 34 -3 15 3 16 65 9 38 -5 114 -10 169 -11z m599 -34 c17 0 106 -83 106 -98 0 -7 7 -15 15 -18 8 -4 15 -11 15 -17 0 -6 -17 6 -38 26 -45 44 -67 47 -80 9 -22 -65 -105 -65 -117 0 -11 60 29 117 73 102 8 -2 19 -4 26 -4z m856 -14 c0 -8 -12 -17 -26 -20 -22 -6 -25 -11 -21 -34 34 -168 36 -171 95 -154 54 16 65 34 68 102 3 66 15 94 45 111 30 16 33 6 10 -40 -12 -22 -24 -67 -27 -100 -6 -55 -5 -61 19 -85 14 -14 34 -26 44 -26 10 0 31 -14 47 -32 36 -41 31 -90 -13 -130 -42 -38 -91 -48 -217 -45 l-109 2 -6 70 c-3 39 -15 104 -27 145 -12 41 -30 104 -40 140 -17 62 -19 65 -53 70 -19 4 -40 10 -47 14 -30 18 8 26 129 26 103 0 129 -3 129 -14z m327 -8 c20 -16 3 -31 -28 -24 -33 6 -59 -22 -59 -65 0 -15 -7 -32 -16 -40 -14 -11 -15 -9 -9 27 3 21 11 58 17 82 11 43 11 44 47 37 20 -4 42 -11 48 -17z m-1357 -19 c0 -10 -4 -19 -10 -19 -5 0 -10 12 -10 26 0 14 4 23 10 19 6 -3 10 -15 10 -26z m595 -54 c1 -44 5 -87 10 -95 13 -20 56 -215 58 -260 3 -54 -23 -50 -94 18 -56 53 -61 61 -48 75 20 20 13 79 -13 107 -16 17 -27 20 -51 14 -50 -10 -51 -14 -17 -49 37 -38 38 -64 2 -39 -26 18 -66 100 -56 115 3 5 27 9 55 9 45 0 49 2 49 23 0 46 -32 118 -56 129 -13 6 -24 17 -24 25 0 10 21 12 93 11 l92 -3 0 -80z m-585 -31 c0 -45 -24 -42 -28 4 -2 24 1 32 12 32 12 0 16 -10 16 -36z m337 -77 c-2 -7 -17 -14 -34 -18 -34 -7 -143 10 -143 22 0 8 145 17 168 10 7 -2 11 -8 9 -14z"></path><path d="M143 1104 c-3 -10 -1 -31 6 -48 7 -17 17 -54 21 -83 5 -29 13 -67 19 -85 5 -18 15 -61 22 -95 11 -57 14 -63 36 -63 22 0 25 3 20 28 -3 15 -8 45 -12 67 -3 22 -12 63 -20 90 -21 77 -35 143 -35 165 0 11 -9 24 -19 30 -26 14 -31 13 -38 -6z"></path><path d="M490 1094 c0 -9 7 -40 15 -68 23 -79 57 -217 62 -253 4 -25 10 -33 25 -33 19 0 20 4 14 50 -4 28 -16 85 -27 128 -11 42 -26 102 -32 132 -10 45 -16 56 -34 58 -16 2 -23 -2 -23 -14z"></path><path d="M1184 925 c-3 -8 -3 -19 1 -25 11 -18 25 -11 25 15 0 27 -17 34 -26 10z"></path><path d="M1586 1064 c-18 -17 -21 -50 -6 -59 18 -11 50 6 65 34 8 16 11 31 8 35 -12 12 -52 6 -67 -10z"></path><path d="M2374 1067 c-2 -7 2 -29 10 -49 15 -36 44 -157 55 -233 5 -32 11 -41 30 -43 22 -4 23 -2 16 40 -4 24 -14 66 -21 93 -8 28 -19 75 -24 105 -6 30 -15 65 -20 78 -10 24 -38 30 -46 9z"></path><path d="M2519 850 c-11 -7 -9 -22 12 -87 22 -69 28 -78 52 -81 38 -5 64 13 76 51 21 62 -14 109 -90 120 -20 3 -42 1 -50 -3z"></path><path d="M2690 815 c0 -9 4 -24 10 -34 6 -11 6 -30 0 -50 -7 -27 -6 -31 10 -31 28 0 50 48 41 90 -5 28 -12 36 -34 38 -20 2 -27 -1 -27 -13z"></path><path d="M1986 1061 c-8 -12 49 -238 64 -256 7 -8 17 -12 22 -9 13 8 2 113 -18 168 -7 23 -14 50 -14 62 0 33 -39 59 -54 35z"></path></g></g></svg>
